# AST/ASF file generated using VICON BodyLanguage
# -----------------------------------------------
:version 1.10
:name VICON
:units
  mass 1.0
  length 0.45
  angle deg
:documentation
   .ast/.asf automatically generated from VICON data using
   VICON BodyBuilder and BodyLanguage model FoxedUp or BRILLIANT.MOD
:root
   order TX TY TZ RX RY RZ
   axis XYZ
   position 0 0 0  
   orientation 0 0 0 
:bonedata
  begin
     id 1 
     name lhipjoint
     direction 0.716248 -0.617586 0.324924 
     length 2.63557 
     axis 0 0 0  XYZ
  end
  begin
     id 2 
     name lfemur
     direction 0.34202 -0.939693 0  
     length 7.01235  
     axis 0 0 20  XYZ
    dof rx ry rz
    limits (-160.0 20.0)
           (-70.0 70.0)
           (-60.0 70.0)
  end
  begin
     id 3 
     name ltibia
     direction 0.34202 -0.939693 0   
     length 8.14348   
     axis 0 0 20   XYZ
    dof rx
    limits (-10.0 170.0)
  end
  begin
     id 4 
     name lfoot
     direction 0.0982064 -0.26982 0.95789   
     length 1.99077   
     axis -90 7.62852e-016 20   XYZ
    dof rx rz
    limits (-45.0 90.0)
           (-70.0 20.0)
  end
  begin
     id 5 
     name ltoes
     direction 1.53511e-011 -4.21891e-011 1   
     length 0.99735   
     axis -90 7.62852e-016 20   XYZ
    dof rx
    limits (-90.0 20.0)
  end
  begin
     id 6 
     name rhipjoint
     direction -0.687828 -0.642391 0.337975   
     length 2.5338  
     axis 0 0 0  XYZ 
  end
  begin
     id 7 
     name rfemur
     direction -0.34202 -0.939693 0   
     length 6.90199   
     axis 0 0 -20   XYZ
    dof rx ry rz
    limits (-160.0 20.0)
           (-70.0 70.0)
           (-70.0 60.0)
  end
  begin
     id 8 
     name rtibia
     direction -0.34202 -0.939693 0   
     length 8.07725   
     axis 0 0 -20   XYZ
    dof rx
    limits (-10.0 170.0)
 end
 begin
     id 9 
     name rfoot
     direction -0.0912384 -0.250675 0.963762   
     length 2.11621  
     axis -90 -7.62852e-016 -20   XYZ
    dof rx rz
    limits (-45.0 90.0)
           (-20.0 70.0)
  end
  begin
     id 10 
     name rtoes
     direction -1.5359e-011 -4.21894e-011 1   
     length 1.06031   
     axis -90 -7.62852e-016 -20   XYZ
    dof rx
    limits (-90.0 20.0)
  end
  begin
     id 11 
     name lowerback
     direction -0.0403572 0.987953 -0.149396   
     length 2.05637   
     axis 0 0 0   XYZ
    dof rx ry rz
    limits (-20.0 45.0)
           (-30.0 30.0)
           (-30.0 30.0)
  end
  begin
     id 12 
     name upperback
     direction -0.00512151 0.997598 0.0690792   
     length 2.01086   
     axis 0 0 0   XYZ
    dof rx ry rz
    limits (-20.0 45.0)
           (-30.0 30.0)
           (-30.0 30.0)
  end
  begin
     id 13 
     name thorax
     direction 0.0136133 0.989392 0.14463   
     length 2.09035   
     axis 0 0 0   XYZ
    dof rx ry rz
    limits (-20.0 45.0)
           (-30.0 30.0)
           (-30.0 30.0)
  end
  begin
     id 14 
     name lowerneck
     direction 0.0250714 0.992811 0.11704   
     length 1.70806   
     axis 0 0 0   XYZ
    dof rx ry rz
    limits (-20.0 45.0)
           (-30.0 30.0)
           (-30.0 30.0)
  end
  begin
     id 15 
     name upperneck
     direction -0.0519205 0.998394 -0.0226787   
     length 1.6689   
     axis 0 0 0   XYZ
    dof rx ry rz
    limits (-20.0 45.0)
           (-30.0 30.0)
           (-30.0 30.0)
  end
  begin
     id 16
     name head
     direction -0.0201693 0.999547 -0.0223192  
     length 1.83412  
     axis 0 0 0   XYZ
    dof rx ry rz
    limits (-20.0 45.0)
           (-30.0 30.0)
           (-30.0 30.0)
  end
  begin
     id 17 
     name lclavicle
     direction 0.89585 0.444077 -0.0157448  
     length 3.39587  
     axis 0 0 0   XYZ
    dof ry rz
    limits (-20.0 10.0)
           (0.0 20.0)
  end
  begin
     id 18 
     name lhumerus
     direction 1 -4.48956e-011 1.99132e-028   
     length 5.79199   
     axis 180 -30 -90   XYZ
    dof rx ry rz
    limits (-60.0 90.0)
           (-90.0 90.0)
           (-90.0 90.0)
  end
  begin
     id 19
     name lradius
     direction 1 -4.48974e-011 8.72912e-028   
     length 3.49908   
     axis 180 -30 -90   XYZ
    dof rx
    limits (-10.0 170.0)
  end
  begin
     id 20
     name lwrist
     direction 1 -4.48994e-011 4.76442e-027   
     length 1.74954   
     axis -3.27502e-015 90 90   XYZ
    dof ry
    limits (-180.0 0.0)
 end
  begin
     id 21 
     name lhand
     direction 1 -4.48945e-011 9.531e-027   
     length 0.593861   
     axis -6.08098e-015 90 90   XYZ
    dof rx rz
    limits (-90.0 90.0)
           (-45.0 45.0)
  end
  begin
     id 22 
     name lfingers
     direction 1 -4.48945e-011 1.9062e-026   
     length 0.478786   
     axis -1.21619e-014 90 90   XYZ
    dof rx
    limits (0.0 90.0)
  end
  begin
     id 23
     name lthumb
     direction 0.707107 -6.34904e-011 0.707107   
     length 0.687444   
     axis -90 45 -9.86923e-015   XYZ
    dof rx rz
    limits (-45.0 45.0)
           (-45.0 45.0)
  end
  begin
     id 24 
     name rclavicle
     direction -0.940466 0.338394 0.0318182   
     length 3.51226  
     axis 0 0 0   XYZ 
    dof ry rz
    limits (-10.0 20.0)
           (-20.0 0.0)
  end
  begin
     id 25 
     name rhumerus
     direction -1 -4.48976e-011 2.0905e-027  
     length 5.73799   
     axis 180 30 90   XYZ
    dof rx ry rz
    limits (-90.0 60.0)
           (-90.0 90.0)
           (-90.0 90.0)
  end
  begin
     id 26 
     name rradius
     direction -1 -4.48968e-011 -9.39692e-029   
     length 3.57916   
     axis 180 30 90   XYZ
    dof rx
    limits (-10.0 170.0)
  end
  begin
     id 27 
     name rwrist
     direction -1 -4.48959e-011 4.7652e-027   
     length 1.78958   
     axis -3.27502e-015 -90 -90   XYZ
    dof ry
    limits (-180.0 0.0)
  end
  begin
     id 28
     name rhand
     direction -1 -4.49042e-011 9.5267e-027   
     length 0.615577   
     axis -6.08098e-015 -90 -90   XYZ
    dof rx rz
    limits (-90.0 90.0)
           (-45.0 45.0)
  end
  begin
     id 29
     name rfingers
     direction -1 -4.48935e-011 1.90629e-026   
     length 0.496294   
     axis -1.21619e-014 -90 -90   XYZ
    dof rx
    limits (0.0 90.0)
  end
  begin
     id 30
     name rthumb
     direction -0.707107 -6.34977e-011 0.707107   
     length 0.712582   
     axis -90 -45 9.86923e-015   XYZ
    dof rx rz
    limits (-45.0 45.0)
           (-45.0 45.0)
  end
:hierarchy
  begin
    root lhipjoint rhipjoint lowerback
    lhipjoint lfemur
    lfemur ltibia
    ltibia lfoot
    lfoot ltoes
    rhipjoint rfemur
    rfemur rtibia
    rtibia rfoot
    rfoot rtoes
    lowerback upperback
    upperback thorax
    thorax lowerneck lclavicle rclavicle
    lowerneck upperneck
    upperneck head
    lclavicle lhumerus
    lhumerus lradius
    lradius lwrist
    lwrist lhand lthumb
    lhand lfingers
    rclavicle rhumerus
    rhumerus rradius
    rradius rwrist
    rwrist rhand rthumb
    rhand rfingers
  end

#!OML:ASF H:\Terrain\Patient Classification 1\PaulMetrics\March17Take5\PaulMetrics.ASF
:FULLY-SPECIFIED
:DEGREES
107
root 18.1727 17.5072 -17.2446 -13.5839 -71.6054 21.9816
lowerback 4.18278 0.936747 -7.13229
upperback -1.83405 0.802897 -0.302801
thorax -4.35995 0.590207 3.62352
lowerneck -6.91095 4.37976 4.10645
upperneck 3.15182 5.66906 -3.88348
head 2.46482 2.76138 -1.71773
rclavicle 6.21202e-015 -1.59028e-014
rhumerus -43.527 12.4731 -87.0796
rradius 33.9335
rwrist -5.7942
rhand -15.7317 -30.3104
rfingers 7.12502
rthumb 10.459 -60.0302
lclavicle 6.21202e-015 -1.59028e-014
lhumerus -38.1085 12.3344 72.5027
lradius 29.4664
lwrist 14.4868
lhand -11.2038 -19.6025
lfingers 7.12502
lthumb 14.8242 9.84727
rfemur -12.7755 2.98645 19.091
rtibia 22.6379
rfoot -17.228 -19.9674
rtoes 2.8505
lfemur -24.1423 2.34315 -18.733
ltibia 22.6159
lfoot -15.0947 18.7163
ltoes -4.70664
108
root 18.1777 17.4947 -17.2623 -14.2472 -71.5627 22.5285
lowerback 4.22816 0.928662 -7.21288
upperback -1.78233 0.783355 -0.34978
thorax -4.33012 0.579512 3.62124
lowerneck -6.94908 4.46966 4.44005
upperneck 3.28644 5.76969 -4.0388
head 2.5415 2.81112 -1.82207
rclavicle 2.09221e-014 -2.38542e-015
rhumerus -43.5746 12.3831 -87.0542
rradius 34.0108
rwrist -5.60919
rhand -17.1947 -31.0913
rfingers 7.12502
rthumb 9.04744 -60.8773
lclavicle 2.09221e-014 -2.38542e-015
lhumerus -38.3047 13.0312 72.0999
lradius 29.0643
lwrist 13.9337
lhand -10.9859 -19.8794
lfingers 7.12502
lthumb 15.0341 9.55475
rfemur -13.0981 2.85894 18.9533
rtibia 23.6206
rfoot -18.0152 -19.5546
rtoes 3.87713
lfemur -23.4495 2.51832 -19.0934
ltibia 22.2158
lfoot -13.9366 18.3371
ltoes -5.21116
109
root 18.1823 17.5097 -17.287 -14.0702 -71.6695 22.4016
lowerback 4.16476 0.976972 -7.19014
upperback -1.83303 0.859515 -0.204398
thorax -4.35825 0.621772 3.75429
lowerneck -6.87766 4.4638 4.13512
upperneck 3.31154 5.78789 -3.94386
head 2.52115 2.81943 -1.73668
rclavicle 5.03422e-014 -7.15625e-015
rhumerus -43.6562 12.296 -86.8293
rradius 34.0615
rwrist -5.38082
rhand -17.8466 -31.6033
rfingers 7.12502
rthumb 8.41841 -61.4155
lclavicle 5.03422e-014 -7.15625e-015
lhumerus -38.5974 13.5229 72.051
lradius 28.8504
lwrist 13.5598
lhand -11.5244 -19.8317
lfingers 7.12502
lthumb 14.5152 9.64058
rfemur -13.2703 3.4022 19.0955
rtibia 23.5917
rfoot -17.7371 -20.1638
rtoes 3.1938
lfemur -23.7616 2.82231 -19.1307
ltibia 23.3644
lfoot -13.6876 17.4893
ltoes -5.77647
110
root 18.1904 17.5475 -17.3191 -13.9972 -71.8484 22.3542
lowerback 4.23255 1.07654 -7.06532
upperback -1.90196 0.993369 -0.163705
thorax -4.48296 0.691387 3.714
lowerneck -6.89752 4.41922 4.00973
upperneck 3.39566 5.74012 -3.92323
head 2.5451 2.79414 -1.70931
rclavicle 2.35063e-014 2.22639e-014
rhumerus -43.4125 11.9006 -86.5727
rradius 33.7043
rwrist -5.05708
rhand -17.6296 -31.2288
rfingers 7.12502
rthumb 8.62781 -61.0325
lclavicle 2.35063e-014 2.22639e-014
lhumerus -38.7124 13.4701 72.0736
lradius 28.6987
lwrist 13.6837
lhand -11.9628 -19.5695
lfingers 7.12502
lthumb 14.0929 9.93267
rfemur -13.8157 4.06846 19.2497
rtibia 23.9416
rfoot -16.8404 -21.2473
rtoes 0.0125497
lfemur -23.6726 3.28656 -19.1279
ltibia 23.8074
lfoot -13.1531 16.4907
ltoes -5.55454
111
root 18.235 17.4862 -17.3804 -0.347443 -71.6759 8.92168
lowerback 4.1752 0.790744 -3.08072
upperback -2.37719 0.900508 0.934854
thorax -4.87009 0.561797 2.62353
lowerneck -6.70336 4.31494 4.49103
upperneck 3.27555 5.57628 -4.19195
head 2.49177 2.71395 -1.8957
rclavicle 1.39149e-015 1.66979e-014
rhumerus -43.3385 11.3822 -86.4348
rradius 33.5324
rwrist -4.86237
rhand -17.6537 -31.0517
rfingers 7.12502
rthumb 8.60458 -60.8564
lclavicle 1.39149e-015 1.66979e-014
lhumerus -38.7596 13.0816 71.9885
lradius 28.5666
lwrist 13.9086
lhand -11.9889 -19.5024
lfingers 7.12502
lthumb 14.0677 10.0015
rfemur -14.6888 5.33063 23.914
rtibia 23.7438
rfoot -17.3006 -22.8083
rtoes 3.36544
lfemur -25.8672 4.12246 -14.7774
ltibia 25.2338
lfoot -12.1805 14.6787
ltoes -2.99646
112
root 18.1906 17.5301 -17.3498 -15.4919 -71.7814 23.6348
lowerback 4.24615 1.15364 -7.0413
upperback -1.87229 1.08636 -0.391958
thorax -4.46512 0.730856 3.45425
lowerneck -6.51164 4.26418 4.63938
upperneck 3.17506 5.50756 -4.32469
head 2.43069 2.68029 -1.97302
rclavicle 5.27276e-014 -4.77083e-015
rhumerus -43.6373 11.2958 -86.2906
rradius 33.8066
rwrist -4.99668
rhand -17.7452 -31.3896
rfingers 7.12502
rthumb 8.51627 -61.1978
lclavicle 5.27276e-014 -4.77083e-015
lhumerus -38.9678 13.1603 71.8312
lradius 28.3578
lwrist 13.8495
lhand -10.9303 -18.8947
lfingers 7.12502
lthumb 15.0877 10.5354
rfemur -13.5121 3.3635 18.9519
rtibia 23.8924
rfoot -16.5777 -20.6281
rtoes -0.382159
lfemur -23.7664 4.32552 -19.8853
ltibia 26.0353
lfoot -13.593 14.4525
ltoes -0.822867
113
root 18.2228 17.4979 -17.3954 -7.37208 -71.7889 15.6445
lowerback 4.21654 0.874685 -4.79488
upperback -2.15054 0.883897 0.373488
thorax -4.68038 0.591234 3.00611
lowerneck -6.55831 4.29865 4.71603
upperneck 3.30688 5.56034 -4.54115
head 2.49824 2.70064 -2.05509
rclavicle 2.5842e-015 -8.74653e-015
rhumerus -43.828 11.2262 -86.1971
rradius 34.1196
rwrist -5.33751
rhand -18.0268 -31.8541
rfingers 7.12502
rthumb 8.24446 -61.6732
lclavicle 2.5842e-015 -8.74653e-015
lhumerus -39.0787 13.4418 71.668
lradius 28.0245
lwrist 13.707
lhand -9.38527 -17.7728
lfingers 7.12502
lthumb 16.5755 11.5393
rfemur -14.1948 3.26266 21.8235
rtibia 23.6095
rfoot -15.6508 -21.5629
rtoes -3.66192
lfemur -25.2472 4.7717 -17.3513
ltibia 27.4636
lfoot -12.7286 13.3889
ltoes -4.52598
